<?xml version="1.0" encoding="utf-8"?>
<!-- Generator: Adobe Illustrator 18.1.1, SVG Export Plug-In . SVG Version: 6.00 Build 0)  -->
<svg version="1.1" xmlns="http://www.w3.org/2000/svg" xmlns:xlink="http://www.w3.org/1999/xlink" x="0px" y="0px"
	 viewBox="0 0 140 160" enable-background="new 0 0 140 160" xml:space="preserve">
<g id="Layer_1">
</g>
<g id="artboardexport1">
	<g>
		<path d="M53.1,122.1c-0.4,0-1-0.1-1.3-0.3l-0.7,0.3v-8.3l0.7-0.2c0,0,0,3.3,0,3.3c0.4-0.3,0.9-0.7,1.7-0.7c1.5,0,2.4,1.2,2.4,2.8
			C55.9,120.8,54.7,122.1,53.1,122.1z M53.3,117c-0.6,0-1.1,0.3-1.5,0.6c0,0,0,3.4,0,3.4c0.3,0.3,0.9,0.4,1.4,0.4
			c1.2,0,1.9-0.9,1.9-2.3C55.1,117.9,54.4,117,53.3,117z"/>
		<path d="M57.5,119.2c0,1.2,0.8,2.1,1.9,2.1c0.6,0,1.2-0.2,1.6-0.5l0.1,0.7c-0.5,0.3-1.1,0.5-1.8,0.5c-1.6,0-2.7-1.2-2.7-2.9
			c0-1.7,1.1-3,2.6-3c1.2,0,2,0.8,2,2c0,0.3,0,0.6-0.1,0.9L57.5,119.2L57.5,119.2z M60.6,118.6c0-0.1,0-0.2,0-0.2
			c0-0.8-0.5-1.4-1.3-1.4c-1,0-1.6,0.8-1.7,1.7L60.6,118.6z"/>
		<path d="M63.3,121.9h-0.7v-5.5l0.7-0.2v1.2c0.4-0.7,0.9-1.2,1.6-1.2c0.4,0,0.7,0.1,1,0.3l-0.2,0.7c-0.2-0.1-0.5-0.2-0.8-0.2
			c-0.6,0-1.1,0.4-1.5,1.4V121.9z"/>
		<path d="M67.5,119.2v2.7h-0.7v-8.1l0.7-0.2v5.3h0l2.5-2.5h0.9l-2.6,2.6l2.7,2.9H70L67.5,119.2L67.5,119.2z"/>
		<path d="M72.1,119.2c0,1.2,0.8,2.1,1.9,2.1c0.6,0,1.2-0.2,1.6-0.5l0.1,0.7c-0.5,0.3-1.1,0.5-1.8,0.5c-1.6,0-2.7-1.2-2.7-2.9
			c0-1.7,1.1-3,2.6-3c1.2,0,2,0.8,2,2c0,0.3,0,0.6-0.1,0.9L72.1,119.2L72.1,119.2z M75.2,118.6c0-0.1,0-0.2,0-0.2
			c0-0.8-0.5-1.4-1.3-1.4c-1,0-1.6,0.8-1.7,1.7L75.2,118.6z"/>
		<path d="M77.2,121.9v-8.1l0.7-0.2v8.2H77.2z"/>
		<path d="M80,119.2c0,1.2,0.8,2.1,1.9,2.1c0.6,0,1.2-0.2,1.6-0.5l0.1,0.7c-0.5,0.3-1.1,0.5-1.8,0.5c-1.6,0-2.7-1.2-2.7-2.9
			c0-1.7,1.1-3,2.6-3c1.2,0,2,0.8,2,2c0,0.3,0,0.6-0.1,0.9L80,119.2L80,119.2z M83.1,118.6c0-0.1,0-0.2,0-0.2c0-0.8-0.5-1.4-1.3-1.4
			c-1,0-1.6,0.8-1.7,1.7L83.1,118.6z"/>
		<path d="M87.2,121.9l-0.4,1.2c-0.5,1.3-1,1.7-1.8,1.7c-0.4,0-0.7-0.1-1.1-0.3l0.2-0.7c0.3,0.1,0.5,0.2,0.8,0.2
			c0.4,0,0.7-0.2,1.1-1.3l0.4-1l-2.1-5.4h0.8l1.7,4.5l1.7-4.5h0.8L87.2,121.9z"/>
		<path d="M57.9,131.9v-3.5c0-1-0.4-1.4-1.2-1.4c-0.6,0-1.1,0.3-1.5,0.7c0,0.1,0,0.4,0,0.5v3.7h-0.7v-3.5c0-1-0.4-1.4-1.2-1.4
			c-0.6,0-1.1,0.3-1.5,0.6v4.3h-0.7v-5.5l0.7-0.2c0,0,0,0.7,0,0.8c0.6-0.5,1.2-0.8,1.7-0.8c0.7,0,1.2,0.3,1.5,0.9
			c0.6-0.6,1.3-0.9,1.9-0.9c1,0,1.7,0.7,1.7,1.9v3.8H57.9z"/>
		<path d="M63.7,131.3c-0.4,0.5-1,0.8-1.6,0.8c-1,0-1.7-0.6-1.7-1.5c0-1,0.8-1.8,3.3-2c0,0,0-0.3,0-0.3c0-0.9-0.4-1.3-1.3-1.3
			c-0.6,0-1.3,0.3-1.8,0.7l-0.2-0.7c0.5-0.3,1.3-0.7,2-0.7c1.3,0,2,0.6,2,2c0,0,0,2.6,0,2.6c0,0.4,0.1,0.6,0.6,0.6l0,0.6
			C64.2,132.1,63.8,131.8,63.7,131.3L63.7,131.3z M63.7,129.1c-1.9,0.2-2.6,0.6-2.6,1.4c0,0.6,0.5,1,1.1,1c0.6,0,1.1-0.3,1.4-0.7
			V129.1z"/>
		<path d="M68.9,126.3c1.5,0,2.5,1.2,2.5,2.8c0,1.7-1.1,2.9-2.7,2.9c-0.4,0-1-0.1-1.3-0.3v2.9h-0.7v-8.3l0.7-0.2c0,0,0,0.7,0,0.7
			C67.7,126.6,68.3,126.3,68.9,126.3z M67.3,131c0.3,0.3,0.9,0.4,1.4,0.4c1.2,0,1.9-0.9,1.9-2.2c0-1.3-0.7-2.2-1.8-2.2
			c-0.6,0-1.1,0.3-1.5,0.6C67.3,127.6,67.3,131,67.3,131z"/>
		<path d="M75.6,126.3c1.5,0,2.5,1.2,2.5,2.8c0,1.7-1.1,2.9-2.7,2.9c-0.4,0-1-0.1-1.3-0.3v2.9h-0.7v-8.3l0.7-0.2c0,0,0,0.7,0,0.7
			C74.4,126.6,74.9,126.3,75.6,126.3z M74,131c0.3,0.3,0.9,0.4,1.4,0.4c1.2,0,1.9-0.9,1.9-2.2c0-1.3-0.7-2.2-1.8-2.2
			c-0.6,0-1.1,0.3-1.5,0.6C74,127.6,74,131,74,131z"/>
		<path d="M80.3,129.2c0,1.2,0.8,2.1,1.9,2.1c0.6,0,1.2-0.2,1.6-0.5l0.1,0.7c-0.5,0.3-1.1,0.5-1.8,0.5c-1.6,0-2.7-1.2-2.7-2.9
			c0-1.7,1.1-3,2.6-3c1.2,0,2,0.8,2,2c0,0.3,0,0.6-0.1,0.9L80.3,129.2L80.3,129.2z M83.4,128.6c0-0.1,0-0.2,0-0.2
			c0-0.8-0.5-1.4-1.3-1.4c-1,0-1.6,0.8-1.7,1.7L83.4,128.6z"/>
		<path d="M86.8,131.9H86v-5.5l0.7-0.2v1.2c0.4-0.7,0.9-1.2,1.6-1.2c0.4,0,0.7,0.1,1,0.3l-0.2,0.7c-0.2-0.1-0.5-0.2-0.8-0.2
			c-0.6,0-1.1,0.4-1.5,1.4V131.9z"/>
	</g>
	<text transform="matrix(1 0 0 1 50.3513 121.8118)" display="none"><tspan x="0" y="0" display="inline" font-family="'FreightSansProBook-Regular'" font-size="10">BERKELEY</tspan><tspan x="0" y="9" display="inline" font-family="'FreightSansProBook-Regular'" font-size="12">mapper</tspan></text>
	<text transform="matrix(1 0 0 1 50.3513 122.1451)" display="none"><tspan x="0" y="0" display="inline" font-family="'FreightSansProBook-Regular'" font-size="12">berkeley</tspan><tspan x="0" y="9" display="inline" font-family="'FreightSansProBook-Italic'" font-size="12">mapper</tspan></text>
	<g>
		<path fill="#68A6B5" d="M70.4,84.8c0,0-7.3-6.1-10.2-9.6C57.3,71.7,52,65,47.3,64.6s-3.3,2.3-2.4,4.8s3.8,5.2,6.4,8.1
			c4.2,4.7,3.4,2,8.8,5.2c5.4,3.1,8.6,4.4,8.6,4.4L70.4,84.8z"/>
		<path fill="#8EC5CE" d="M57.8,83c-0.4-0.2-3.1-1.6-2.9-1.2c0.4,0.7,3.3,4.5,4.5,6.2c3.8,5.3,5.6,10.1,9.6,12.2
			c4.9,2.6,1-10.6,1-10.6l-0.4-1.1C69.6,88.6,62.5,85.3,57.8,83z"/>
		<path fill="none" stroke="#FFFFFF" stroke-width="0.6921" stroke-miterlimit="10" d="M68.7,83.4c0,0-3.6-0.7-7.5-2.9
			c-3.9-2.2-6-3.3-6.5-4.8c-0.5-1.5-1.9-3.7-1.9-5.1c0-1.4-0.2-3.5-0.2-3.5"/>
		<path fill="none" stroke="#FFFFFF" stroke-width="0.6921" stroke-miterlimit="10" d="M46.2,73.2c0,0,8.5,2.6,10,4.1"/>
		<path fill="#68A6B5" d="M71.3,85.2c0,0,7.3-6.1,10.2-9.6c2.9-3.5,8.2-10.2,12.8-10.6c4.6-0.4,2.1,4.5,0.7,6.7
			c-1.3,2.2-3.2,4.2-5.5,6.4c-2.8,2.6-2.6,1.8-7.9,4.9c-5.4,3.1-8.6,4.4-8.6,4.4L71.3,85.2z"/>
		<path fill="#8EC5CE" d="M87,81.7c0.4-0.1-1.5,2.4-1.8,2.7c-1.4,1.8-2.7,3.8-4.7,6.7c-2.2,3.1-2,5.6-6.3,7.1c-5.3,1.7-1.6-9-1.6-9
			l0.9,0.2C73.5,89.5,82.7,82.9,87,81.7z"/>
		<path fill="none" stroke="#FFFFFF" stroke-width="0.6921" stroke-miterlimit="10" d="M72.9,83.8c0,0,3.6-0.7,7.5-2.9
			c3.9-2.2,6-3.3,6.5-4.8c0.5-1.5,1.9-3.7,1.9-5.1c0-1.4,0.2-3.5,0.2-3.5"/>
		<path fill="none" stroke="#FFFFFF" stroke-width="0.6921" stroke-miterlimit="10" d="M95.3,73.7c0,0-8.5,2.8-10,4.3"/>
		<path fill="#8EC5CE" stroke="#FFFFFF" stroke-miterlimit="10" d="M64.5,95.8c-1.9-5.1,2.9-6.6,7.2-6.3c3.2,0.2,6.4,0.4,5.8,5.5
			c-0.4,3.3-1.4,4.9-2.9,8.8c-0.6,1.5-2.9,8.5-3.9,8.8c-0.7,0.3-3-7.7-3.7-10C66.3,100.3,65.8,99.4,64.5,95.8z"/>
		<path fill="none" stroke="#FFFFFF" stroke-width="0.6921" stroke-miterlimit="10" d="M64.7,100.6c0.3,1.9,6.9,5.7,13.3,0"/>
		<ellipse fill="#68A6B5" stroke="#FFFFFF" stroke-miterlimit="10" cx="70.9" cy="85.2" rx="6.2" ry="5.9"/>
		<path fill="none" stroke="#FFFFFF" stroke-width="0.3461" stroke-miterlimit="10" d="M57.1,82.2"/>
		<ellipse fill="#3BAABC" stroke="#FFFFFF" stroke-miterlimit="10" cx="71" cy="77.1" rx="6.1" ry="3.6"/>
		<path fill="#003262" stroke="#FFFFFF" stroke-width="0.3461" stroke-miterlimit="10" d="M61.3,96.5"/>
		<path fill="#003262" stroke="#003262" stroke-miterlimit="10" d="M97.9,35.2c-0.8-1.7-2.4-3.4-4-3.8c-1.6-0.5-3.3-3.6-9.4-6.4
			s-14.4-3-14.4-3c-26.9,0-30.9,27.2-30.9,27.2c2,0.7,1.3-5.1,6.2-10.8c4.9-5.6,9.4-7.4,13.4-7.9s1.9,1.6,1.9,1.6
			c-3.9,5.5-4,5.5-3.7,6.3c0.9,2,2.2-1,5.5-4.9c4.7-5.5,10.7-4.1,17.8-2.2c7,1.9,7.6,4.3,13,5.9S98.7,36.9,97.9,35.2z"/>
		<path fill="#3BAABC" stroke="#3BAABC" stroke-miterlimit="10" d="M66.4,59.7c0,0-1-0.7-3.7,0.8c-1.4,0.8-11.5,2.2-10.1,3.8
			c0.3,0.3-1.4-1.6,2.4,2c3.7,3.6,6,6.6,6,6.6c2.2,3.3,2.3,1.8,3.9,0.4c1.4-1.2,4.3-1.6,4.3-1.6c0.9-1.5-0.9-7.9-0.1-10
			C69.1,61.8,68.1,61.7,66.4,59.7z"/>
		<path fill="#3BAABC" stroke="#3BAABC" stroke-miterlimit="10" d="M75.3,60.5c0,0-2,0.7-2.9,0.9c0,0-2.1,1.4-1.6,4.1
			c0.4,2.7,0,6.4,1.7,6.6c3.4,0.4,4.4,2,5.5,2.4c1.1,0.4,3.2-2.2,5.4-4.8c2.1-2.5,3.7-3.4,4.7-4.6c1-1.2,0.7-1.6-1.8-2
			S78.3,63.5,75.3,60.5z"/>
		<path fill="#2A5E79" stroke="#2A5E79" stroke-miterlimit="10" d="M77.9,46.5c0,0,3-5.2,4.2-4.8s1.7-0.9,2.1,0.9
			c0.7,3.5,1.3,5.6,1.3,5.6c0.4,3.3,1.6,4,2.5,5.2c1.2,1.4,2.3,0.5,1.9,3.9c-0.6,4.7,0.5,4.4,0.8,5c0.2,0.6-3.7-2.1-6.7-1.6
			c-3.1,0.6-7.2-0.7-6.9-1.7C77,59.1,82,52.2,77.9,46.5z"/>
		<path fill="#2A5E79" stroke="#2A5E79" stroke-miterlimit="10" d="M63.8,45.6c0,0-8.2-3.9-8.1-4.4c0.1-1,0.1,2.9-1.4,7.5
			c-1.2,3.8-3.2,11-6.2,11.9c-2.8,0.8-1.2,2.2,1.1,1.2c2.3-0.9,5.5-2,9.2-2.6s4.5-1.1,4.5-1.6S58.5,52.3,63.8,45.6z"/>
		<path fill="#2A5E79" stroke="#2A5E79" stroke-miterlimit="10" d="M65.4,44.1c0,0,5.1-3.2,10.8,0.9c0,0,3.3-3.6,4-5.2
			s5.6-4.5,0.6-6.2s-12-3.3-15.5,0.3c-3.2,3.3-3.6,4-4.1,4.7c-0.5,0.7-2.2,1.4-0.4,2.8C62.5,42.7,64.9,43.8,65.4,44.1z"/>
		<path fill="#2A5E79" stroke="#2A5E79" stroke-miterlimit="10" d="M42.4,63c0.1-0.3-3.1-5.1-2.7-8.2c0.4-3.2,3.1-6.9,4.2-10.4
			c1.2-4,6-8.4,9.2-10.1c3.1-1.7,4.6-1.8,4.6-1.8l-1.5,2.2c0,0-1.3,3.4-2,5.8s-1.5,7.5-2.7,10.6s-2.3,6.1-4.1,7.4
			c-1.9,1.3-3.7,1.7-3.4,2.3c0.3,0.6,0.9,1.8,0.9,1.8l-1.5,1.2L42.4,63z"/>
		<g>
			<path fill="#2A5E79" stroke="#2A5E79" stroke-miterlimit="10" d="M98.9,53.7c-1,0.3-4.8,0.3-7.5-0.4c-0.9-0.2-1.7-0.6-2.2-1
				c-0.5-0.5-0.9-1-1.2-1.6c-0.8-1.5-0.9-3.4-1.3-4.8c-0.5-2.2-0.5-1-0.9-3.2s0.4-1.9,1.1-4s3.4-0.4,7.4,1.3
				c1.2,0.5-1.4,3.7-0.2,3.8c1.4,0.2,3.5,0.9,5.8,0l0.5,2.7l0.3,4.8V53L98.9,53.7z"/>
			<path fill="#2A5E79" stroke="#2A5E79" stroke-miterlimit="10" d="M94.8,40.4c0,0,2.2,0,3.4-0.6c1.2-0.6,2.1-1.1,2,1.2
				c0,0.1,0,0.2-0.1,0.3c-0.5,1.3-3.4,4.4-5.3,4.6V40.4z"/>
			<path fill="#2A5E79" d="M98.6,53.4c0,0,0.8,0.9,0.8,2.1c0,2.2-0.9,4.9-2.3,5.5c-1.3,0.6-3.3,0-4-1.7c-0.5-1.2,0.7-3.1,2.2-2.3
				c1.2,0.6,0.3,1.2-0.4,1.3c-0.7,0.1-0.6,2.7,1.8,1.4c1.2-0.7,1.5-1.7,0.9-3.1c-0.4-1.1-3.7-2.4-5.9-0.2c-2.2,2.2,0.4,6,2.5,6.6
				c2.2,0.6,7.4,0.4,6.9-9.7L98.6,53.4z"/>
		</g>
		<path fill="#003262" stroke="#003262" stroke-miterlimit="10" d="M85.3,32.8c0,0-0.6,3.6-1.9,5.3c-1.3,1.7,0.5,3.3,4.1-4.4"/>
		<path fill="none" stroke="#FFFFFF" stroke-miterlimit="10" d="M64.6,96.3c0,0,9.4,1.8,13.6-0.4"/>
		<path fill="#FFFFFF" d="M57.6,25.6c-0.9,1,0.6,1.7,0.6,1.7s1.9,0.4,1.7-0.8S57.9,25.2,57.6,25.6z"/>
		<path fill="#FFFFFF" d="M65.9,22.1c0,0,0.4,2,1.5,1.4c1.1-0.6,1.8-1.6,1.8-1.6L65.9,22.1z"/>
		<path fill="#FFFFFF" d="M70.8,24.2"/>
		<path fill="#FFFFFF" d="M68.8,25.5c-0.1,0.7,1.9,1.6,2.4,0.9s0.2-1-0.6-1.3C69.7,24.9,68.8,24.8,68.8,25.5z"/>
		<path fill="#FFFFFF" d="M82.2,24.5c-0.6,0.6,0.4,2.1,1.6,2.5s1.6-0.3,1-0.6C84.2,26.1,82.8,24,82.2,24.5z"/>
		<path fill="#FFFFFF" d="M46.6,33.6c0,0-1.6,1.3-0.8,1.4c0.7,0.2,3.2-2.4,2.9-2.7S46.6,32.9,46.6,33.6z"/>
		<path fill="#FFFFFF" d="M89.4,29.9c-0.4,0,0.1,2.1,1.3,1.8S91.2,29.7,89.4,29.9z"/>
		<path fill="#FFFFFF" d="M77.1,24.6c-0.7,0.5,0,1.9,0.7,1.1S78.5,23.5,77.1,24.6z"/>
		<path fill="none" stroke="#FFFFFF" stroke-width="0.75" stroke-miterlimit="10" d="M55.7,34.4c0,0-16.7,19.8-11.6,29.4"/>
		<path fill="none" stroke="#FFFFFF" stroke-width="0.75" stroke-miterlimit="10" d="M48.2,39.5c0,0-0.1,3.5,1.1,3.9
			c1.2,0.4,2.6,0,3.5-0.6"/>
		<path fill="none" stroke="#FFFFFF" stroke-width="0.75" stroke-miterlimit="10" d="M45.1,44.7c0,0-0.3,4.3,0.9,4.4
			c1.2,0.1,3.1,0.1,5.2-1.3"/>
		<path fill="none" stroke="#FFFFFF" stroke-width="0.75" stroke-miterlimit="10" d="M41.7,51.5c0,0,0.4,5,1.7,5.1s5.1-2,6-3.4"/>
		<g>
			<path fill="#FFFFFF" d="M81.4,50.4c-0.1,0-0.2,0-0.3,0c0,0,0,0,0,0c0,0,0,0-0.1,0.1l0,0c-0.4,0.1-0.8,0.1-1.1,0.4
				c-0.4,0.4,0.1,0.9-0.1,1.4c0.4,0,0.3,0.7,0.6,0.6c0.4,0,0.7,0.2,1,0.2c0.4,0,0.9,0.2,1.3,0c0.1,0,0.3-0.1,0.4-0.1
				c0.4,0,0.8,0,0.9,0.4c0.1,0.5-0.2,1-0.7,1.1c-0.3,0.1-0.4,0.4-0.8,0.4c-0.4-0.2-0.8-0.3-0.5-0.8c0.1-0.2,0-0.2-0.2-0.3
				c-0.5,0-1.1,0-1.6,0.1C80.2,54,80,54.2,80,54.4c0,0.2,0.1,0.4,0.4,0.4c0.3,0,0.6,0.2,0.9,0.2c0.1,0,0.3,0.1,0.2,0.3
				c0,0.1-0.2,0.1-0.3,0.1c-0.4,0-0.7,0-1.1,0c0,0.3,0.3,0.5,0.4,0.7c0,0.1,0.2,0.1,0.1,0.2c-0.6,0.5,0,0.4,0.2,0.5
				c0.4,0.4,0.9,0.7,1.4,0.9c0.5,0.3,0.5,0.7,0.5,1.1c0,0.3-0.4,0.4-0.7,0.3c-0.3-0.1-0.7-0.3-0.5-0.7c0.3-0.5-0.1-0.6-0.4-0.8
				c-0.4-0.2-0.8-0.6-1.4-0.6c0-0.3-0.2-0.4-0.5-0.3c-0.2,0-0.4,0.2-0.4,0.4c0,0.3,0.3,0.3,0.5,0.4c0,0.1,0.1,0.3,0.1,0.4
				c-0.5,0-0.8-0.5-1.4-0.5c0.5,0.3,0.7,0.9,1.3,1.2c0-0.3-0.1-0.5,0.1-0.7c0.1,0.1,0.2,0.3,0.3,0.4c0,1,0.9,1.3,1.7,1.7
				c0.2,0.1,0.4,0.2,0.5,0.3c0.3,0.2,0.6,0.4,1,0.3c0.6-0.1,0.8,0.1,0.7,0.7c-0.3,0.3-0.7,0.2-1,0.3c-0.2,0-0.3-0.2-0.3-0.4
				c-0.1-0.3-0.3-0.5-0.6-0.6c-0.5-0.3-1.1-0.4-1.5-0.8c-0.1-0.1-0.3,0-0.4,0.1c-0.4,0.2,0,0.6-0.2,0.9c-0.4,0.4-0.8,0.1-1.1-0.1
				c-0.1-0.1-0.2-0.3-0.4-0.2c-0.3-0.4-0.7-0.7-1.1-1.2c-0.2,0.8-0.5,1.3-0.1,1.9c0.6,1,0.8,2.1,0.9,3.2c0.1,1,0.1,1.1-0.9,1.4
				c-0.1,0-0.2,0-0.2,0.1c-0.4-0.2-0.2-0.5-0.3-0.8c0.1-0.2,0.3-0.4,0.6-0.3c0.5,0.1,0.5-0.2,0.4-0.5c-0.1-0.4-0.1-0.9-0.3-1.3
				c-0.2-0.7-0.4-1.3-0.9-1.8c-0.1-0.3-0.3-0.5-0.6-0.4c-0.4,0.1-0.2,0.4-0.2,0.6c0,0.2,0,0.5,0.1,0.7c-0.2,0.2-0.3,0.5-0.3,0.8
				c0,1,0,1.9-0.6,2.8c-0.4,0.3-0.7,0.9-1.4,0.9c0,0-0.1,0-0.1,0.1c-0.6,0.5-0.6,0.5-1.1,0c0-0.7,0-0.7,0.9-1c0,0,0.1-0.1,0.1-0.1
				c0-0.2,0.2-0.2,0.4-0.2c0.2,0,0.3-0.1,0.4-0.3c0-0.4,0.1-0.8,0.2-1.2c0-0.2,0-0.4-0.2-0.4c-0.2,0-0.3,0-0.4,0.2
				c-0.1,0.3-0.3,0.4-0.5,0.1c-0.1-0.1-0.3-0.2-0.4-0.1C72.1,63.5,72,63.3,72,63c0-0.4,0.2-0.6,0.5-0.8c0.1,0,0.4-0.1,0.3-0.3
				c-0.1-0.2-0.3-0.3-0.5-0.2c-0.2,0-0.2,0.2-0.3,0.4c-0.3,0.7-0.8,1.2-1.3,1.8c-0.6,0.7-1.4,0.9-2.2,1.1c-0.4,0-0.8-0.1-1.1,0
				c-0.5,0.2-0.8,0-0.9-0.5c0-0.1,0-0.2,0-0.3c0,0,0.1,0,0.1,0l0,0c0.1-0.3,0.4-0.4,0.6-0.5c0.9,0.3,0.9,0.3,1.4-0.4
				c0.2-0.2,0.4-0.4,0.5-0.7c-0.4,0.1-0.8,0.3-1.2,0c0-0.1-0.1-0.2-0.1-0.2c0.1-0.1,0.1-0.2,0.2-0.2c0.1-0.1,0.3-0.2,0.3-0.4
				c-0.1-0.2-0.3-0.1-0.5-0.2c-0.2-0.1-0.2,0-0.3,0.2c-0.3,0.4-0.4,0-0.6-0.2c0.1,0,0.2-0.1,0.3-0.1c0.1-0.1,0.2-0.2,0-0.2
				c-0.5-0.1-0.5-0.4-0.6-0.8c-0.4,0.3-0.6,0.1-0.9,0c0-0.4-0.2-0.5-0.7-0.4c-0.4-0.2-0.8,0-1.2-0.1c0-0.1-0.1-0.2-0.1-0.3
				c0-0.2,0.1-0.3,0.1-0.5c0.2-0.1,0.3-0.1,0.5-0.2c1,0,0.8-0.7,0.8-1.2c-0.2,0-0.4,0-0.5,0.2c-0.5,0.2-1.1,0.2-1.7,0.5
				c-0.2,0.1-0.5,0.2-0.7-0.1c0-0.3,0-0.5,0-0.8c0.3-0.1,0.6-0.1,1-0.1c0.6,0,1.1-0.1,1.7-0.3c0.2-0.1,0.3-0.2,0.3-0.4
				c0-0.3-0.2-0.2-0.4-0.2c-0.4,0-0.7,0-1,0.1c-0.4,0.1-1,0.2-1.4,0.1c0,0-0.1-0.1-0.1-0.1c0-0.1-0.1-0.2-0.2-0.1
				c-0.4-0.1-0.7-0.1-1.1-0.2c-0.4-0.1-0.6,0.2-0.9,0.4c-0.2,0.1-0.4,0.2-0.6,0.1c-0.2-0.1-0.1-0.3-0.1-0.5c0-0.2,0.3-0.4,0-0.5
				c-0.4-0.2-0.6-0.8-1.1-0.6c-0.3,0.1-0.5,0.1-0.6-0.2c0.2-0.3,0.4-0.4,0.7-0.6c0.5,0,0.9,0.2,0.8,0.7c0,0.2,0.1,0.2,0.2,0.3
				c0.9,0.7,1.7,0.7,2.7,0.2c-0.3-0.2-0.8-0.4-0.2-0.8c0.2,0,0.4,0,0.7,0.1c0.1,0.5,0.4,0.7,0.9,0.6c0.1,0,0.3,0.1,0.5,0.1
				c0.5,0.1,1,0,1.5-0.2c-0.5,0-1,0.2-1.7,0.1c0.8-0.3,1.4-0.3,2.1-0.6c-0.4,0-0.7,0-1,0l0,0l0,0c-0.3,0-0.6,0-0.9,0
				c-0.1-0.1-0.1-0.1-0.2-0.2c0.2-0.1,0.4,0.1,0.6-0.2c-0.9-0.2-1.9-0.1-2.7-0.8c0.1-0.1,0.1-0.2,0-0.3c0,0,0.1-0.1,0.1-0.1l0,0
				c0.3-0.3,0.1-0.3-0.2-0.3c-1-0.1-2-0.3-3.1-0.4c-0.2,0-0.4-0.1-0.5,0.1c-0.1,0.2,0,0.5,0.4,0.5l0,0l0,0c0.1,0,0.2,0,0.3,0.1
				c0,0.1-0.1,0.2-0.1,0.3c-0.4-0.1-0.9-0.3-1.2,0.2c0,0-0.1,0-0.1,0c-0.5-0.6-0.5-0.7,0-1.3c-0.1-0.1-0.3-0.2-0.4-0.1
				c-0.1,0.1-0.2,0.4-0.4,0.2c-0.3-0.3-0.9-0.3-1.1-0.7c-0.1-0.2,0-0.3,0.1-0.5c0.1-0.1,0.3-0.2,0.5-0.1c0.3,0.1,0.6,0.1,0.9,0.1
				c0.2,0.1,0.5,0.2,0.7,0.1c0,0,0.1,0,0.1,0.1c0.3,0.7,1,0.7,1.7,0.7c0.2,0,0.2-0.1,0.2-0.2c0-0.2,0-0.4,0.2-0.4
				c0.2,0,0.5,0,0.6,0.3c0.1,0.3,1.5,0.8,1.7,0.7c0.4-0.3,0.8-0.3,1.3-0.2c-0.8-0.8-1.7-1.3-2.8-1c-0.4,0.1-0.7-0.1-1-0.4
				c0.1-0.5,0.5-0.4,0.9-0.5c0.2,0.1,0.3,0.2,0.5,0.3c0.2,0.2,0.5,0.2,0.8,0.2l0,0l0,0c-0.1-0.1-0.2-0.2-0.3-0.3
				c-0.3-0.4-0.6-0.8-1.2-0.4c-0.2,0.1-0.3,0-0.4-0.2c-0.1-0.2-0.2-0.3,0-0.5c0.1-0.1,0.2-0.3,0.4-0.4c-0.6-0.3-1.2-0.6-1.8-0.1
				c-0.2,0.1-0.4,0-0.6,0l0,0c-0.5-1.1-0.5-1.1,0.5-1.7c0,0,0,0,0-0.1c-0.3-0.3-0.7-0.4-1-0.6c0,0-0.1-0.1-0.1-0.1
				c0-0.1-0.1-0.1-0.2-0.1c-0.2-0.2-0.4-0.5-0.8-0.6c-0.4,0-0.7-0.2-0.8-0.6c0-0.4,0.3-0.5,0.6-0.4c0.2,0,0.4,0.2,0.6,0
				c0.1,0,0.1,0,0.2,0c0,0.1,0,0.2,0.1,0.3c-0.1,0.5,0.2,0.8,0.6,1.1c0.7,0.4,1.4,0.7,2.1,1.1c0.4,0.2,0.5,0.1,0.5-0.3
				c0-0.1,0-0.2,0-0.2c0-0.2-0.1-0.4,0.1-0.5c0.2-0.1,0.3,0.1,0.4,0.1c0.1,0.1,0.3,0.1,0.4,0.2l0,0l0,0c0,0.1,0.1,0.1,0.1,0.2l0,0
				c0,0,0.1,0.1,0.1,0.1c0.2,0.3,0,0.5,0,0.8c-0.2,0.1-0.3,0.3,0,0.4c0.3,0.1,0.6,0.3,0.8,0.4c0.1-0.3,0-0.5-0.2-0.8
				c0.3-0.4,0.7-0.2,1.1-0.2c0.2,0.1,0.4,0.2,0.7,0.2c0.1,0,0.3-0.1,0.3-0.2c0.1-0.1-0.1-0.2-0.2-0.3c-0.1-0.1-0.2-0.2-0.4-0.1
				c-0.2,0.1-0.3,0.2-0.4,0.4c-0.2-0.1-0.3-0.2-0.5-0.4c-0.1-0.2,0-0.4,0.1-0.6c0.2-0.2,0.4-0.4,0.5-0.6c0.2,0.1,0.5,0.2,0.5,0.4
				c0,0.4,0.3,0.6,0.5,0.9c0.6,0.8,1.7,0.9,2.5,1.5c0.2,0.1,0.3,0,0.4-0.1c0.2-0.1,0.1-0.3,0-0.4c-0.5-0.6-1-1.3-1.6-1.9
				c-0.1-0.1-0.2-0.2-0.5-0.2c-0.6,0-0.8-0.2-0.5-0.8c0.1-0.1,0.2-0.1,0.3-0.2c0.2,0.2,0.4,0.1,0.5-0.1c0.2-0.2,0.4-0.3,0.6-0.2
				c0.2,0.1,0.2,0.2,0.1,0.4c-0.1,0.1,0,0.1,0.1,0.1c0.8,0.2,1.4,0.6,1.9,1.3c0-0.5-0.3-0.7-0.4-1c0-0.2-0.1-0.4,0-0.6
				c0.2-0.1,0.3-0.2,0.5-0.2c0.1,0,0.3,0,0.4,0c0.1,0.1,0.1,0.2,0.2,0.3c0.2,0.8,0.9,1.4,1.4,2c0,0.3,0.1,0.5,0.3,0.9
				c0.1-0.4,0-0.7-0.1-1c-0.1-0.3-0.1-0.6-0.2-0.9c0-0.1-0.1-0.3-0.3-0.2c-0.9,0.2-0.7-0.4-0.7-0.8c0.2-0.5-0.1-1-0.6-1.2
				c-0.2-0.1-0.3-0.1-0.4,0.1c-0.1,0-0.2,0.1-0.3,0.1c-0.4-0.4-0.4-1-0.8-1.5c-0.4-0.5-1-1-1.3-1.6c-0.1-0.1-0.3-0.3-0.5-0.1
				c-0.2,0.2-1.5,0-1.6-0.2c-0.2-0.2,0-0.7,0.3-0.8c0.2-0.1,0.3-0.1,0.5,0c0.8,0.3,1.6,0.6,2.4,0.7c0.4,0,0.5,0.5,0.8,0.6
				c0.7,0.2,1.3,0.6,2,0.6c0.2,0,0.5,0.1,0.8,0.1c0,0.1,0.3,0.1,0.2,0.3c0,0.1-0.2,0.1-0.3,0.1c-0.1,0-0.1-0.1-0.2-0.1
				c-0.2-0.1-0.5-0.3-0.6-0.1c-0.2,0.2,0.1,0.4,0.2,0.6c0.4,0.4,0.7,0.8,0.9,1.3c0.3,0.5,0.5,1.1,0.8,1.6c0.5-0.6,0.5-1.8,0-2.6
				c0.1-0.2,0.2-0.4,0-0.7c-0.2-0.4-0.3-0.7-0.5-1.1c-0.1-0.3-0.1-0.6,0.1-0.9c0.4,0,0.6,0.2,0.9,0.4c0.3,0.3,0.3,0.6,0,0.9
				c-0.1,0.1-0.2,0.3-0.1,0.5c0.2,0.3,0.2,0.6,0.2,0.9c0,0.4,0.1,0.7,0.6,0.6c0.4-0.1,0.6,0.2,0.7,0.6c0.4,0.9,0.4,2,0.7,3
				c0-0.3,0-0.6,0.2-0.9c0.6-0.9,0.4-1.9,0.1-2.9c-0.1-0.5-0.3-1-0.8-1.2c-0.2-0.1-0.3-0.2-0.3-0.4c0-0.2,0.2-0.3,0.4-0.3
				c0.5-0.2,1.1,0.2,1,0.7c-0.1,0.5,0.1,0.8,0.1,1.2c0,0.1,0,0.2,0.1,0.2c0,0.5,0.1,1.1,0.1,1.6c-0.1,0.3-0.2,0.6-0.1,0.8
				c0.3,0.6,0.4,1.1,0.1,1.7c-0.1,0.2,0.2,0.7,0.3,0.7c0.4-0.4,0.7-0.1,1,0.2c0.1,0.1,0.1,0,0.2-0.1c0.2-0.2,0.5-0.5,0.6-0.8
				c0.1-0.2,0.1-0.4-0.1-0.5c-0.2-0.2-0.3-0.1-0.5,0.1c-0.2,0.2-0.4,0.2-0.7,0c-0.2-0.2-0.3-0.3-0.2-0.6c0.1-0.4,0.4-0.6,0.9-0.7
				c0.2,0.1,0.4,0.2,0.4,0.4c-0.1,0.4,0.3,0.4,0.5,0.5c0.2,0.1,0.2-0.2,0.3-0.3c0.1-0.2,0.2-0.5-0.2-0.6c-0.4-0.1-0.5-0.4-0.3-0.7
				c0.2-0.3,0.5-0.5,0.9-0.3c0.2,0.1,0.4,0.3,0.3,0.5c-0.2,0.3-0.1,0.7-0.2,1c0.6-0.4,1.3-1.7,1.2-2.4c0-0.2-0.1-0.3-0.4-0.4
				c-0.4-0.1-0.5-0.4-0.4-0.7c0.1-0.4,0.3-0.7,0.7-0.7c0.2,0,0.4,0.2,0.4,0.4c-0.1,0.7,0.1,1.5-0.1,2.2c-0.2,0.9-0.8,1.6-1.4,2.3
				c-0.5,0.7-0.8,1.5-1.2,2.3c0.4-0.3,0.8-0.4,1.2-0.1c0.1,0.1,0.2,0.1,0.3-0.1c0.1-0.3,0.4-0.4,0.7-0.3c0.3,0.1,0.5,0.4,0.4,0.8
				c-0.1,0.3-0.4,0.4-0.7,0.3c0,0-0.1,0-0.1,0.1c0.3,0.3,0.6,0.6,1.2,0.3c0.6-0.2,1.2-0.4,1.7-0.7c0.2-0.1,0.4-0.3,0.3-0.6
				c-0.2-0.4,0-0.9,0.5-1c0.5-0.1,0.4-0.4,0.3-0.6c0.1-0.4,0.5-0.4,0.8-0.5c0.2-0.1,0.5,0.1,0.4,0.3c-0.3,0.5-0.1,1-0.2,1.5
				c-0.1,0.8-0.7,1.2-1.4,1.5C82.4,50.1,81.9,50.2,81.4,50.4C81.5,50.4,81.4,50.4,81.4,50.4z M83,49.4c0.1,0,0.2-0.1,0.2-0.2
				c0.3-0.1,0.5-0.3,0.6-0.6c0.1-0.2,0.2-0.4,0-0.5c-0.2-0.1-0.5,0.1-0.5,0.4c0,0.2,0.1,0.5-0.2,0.6C83,49.2,82.9,49.2,83,49.4
				c-0.1,0-0.1,0-0.2,0c0,0,0,0,0,0.1C82.9,49.4,82.9,49.4,83,49.4z M65.6,49c-0.3-0.4-0.7-0.6-1.2-0.7C64.7,48.7,65.1,48.9,65.6,49
				c0,0.2,0.1,0.3,0.3,0.2C65.8,49.1,65.7,49.1,65.6,49z M66,58.8c-0.3,0-0.5,0.1-0.7,0.3c0.3,0.2,0.6,0.4,0.9,0
				c0.3,0,0.5,0,0.5-0.3c0-0.1,0-0.3,0-0.3c-0.2-0.1-0.4,0.1-0.6,0.2C66.1,58.6,66.1,58.7,66,58.8z M68.6,42.6
				c0.2,0.2,0.3,0.5,0.7,0.7c-0.1-0.4-0.3-0.6-0.5-0.8c-0.3-0.3-0.5-0.7-1.1-0.8C67.7,42.2,67.9,42.6,68.6,42.6z M75.4,54.2
				c-0.4,0.1-0.7,0.2-0.7,0.7c-0.4-0.2-0.3-0.4-0.1-0.7c0.3-0.4,0.2-0.6-0.2-0.8c-0.3-0.1-0.5-0.3-0.5-0.6c0-0.3,0.2-0.4,0.4-0.3
				c0.4,0.4,0.7,0.1,1.1,0c0.5,0,0.4-0.4,0.2-0.6c-0.3-0.4-0.7-0.8-1.4-0.5c-0.3,0.1-0.6,0.2-0.9,0.5c-0.5,0.4-0.5,0.6-0.2,1
				c0.2,0.4,0.3,0.8-0.2,1.2c-0.2,0.2-0.3,0.4-0.2,0.7c0.2,0.4,0,0.9-0.5,0.9c-0.4,0-0.6,0.2-0.7,0.6c0,0.2,0.1,0.4-0.2,0.5
				c0,0,0,0,0,0c0,0,0,0,0,0c0.2,0,0.5-0.1,0.4,0.1c-0.3,0.7,0.5,0.4,0.6,0.7c0-0.3-0.3-0.5-0.2-0.8c0.1-0.2,0-0.4,0.2-0.5
				c0.2-0.1,0.2,0.2,0.3,0.3c0.5,0.6,1.1,0.5,1.5-0.2c0.1,0.3,0.3,0.6,0.6,0.3c0.3-0.2-0.1-0.4-0.1-0.6c0-0.1-0.1-0.1-0.1-0.2
				c-0.6-0.4-0.6-0.7,0-1c0.1,0,0.1-0.1,0.1-0.2C75.2,54.9,75.4,54.6,75.4,54.2c0.3,0,0.6,0.2,0.7,0c0.3-0.4,0.6-0.1,0.9-0.1l0,0
				l0,0c-0.2-0.3-0.6-0.3-0.9-0.4C75.7,53.5,75.4,53.7,75.4,54.2z M70.1,48.2c-0.1-0.6-0.4-1.2-0.7-1.8c-0.1-0.1-0.1-0.3-0.4-0.2
				c-0.2,0.1-0.1,0.2,0,0.4C69.3,47.2,69.6,47.8,70.1,48.2L70.1,48.2z M68.4,54.5c-0.3,0.2-0.6,0-0.7,0.3c0.4,0.1,0.9,0.2,0.5,0.8
				c-0.1,0.1,0,0.2,0.1,0.2c0.3,0.2,0.4,0.5,0.4,0.9c0.2-0.1,0.3,0.1,0.5,0.5c0.2,0.1,0.2-0.3,0.4-0.2c0.1,0.1,0,0.2,0,0.3
				c-0.1,0.2,0,0.3,0.1,0.4c0.1,0.1,0.3,0.1,0.4,0c0.2-0.1,0.1-0.2,0.1-0.4c-0.2-0.3-0.1-0.5,0.3-0.5c0.2,0,0.3-0.2,0.6-0.3
				c-0.5-0.2-0.7-0.7-1.2-0.9c-0.7-0.3-0.8-1-1.2-1.5c-0.1-0.2-0.1-0.3,0-0.5c0.3-0.7,0.6-1.4,1.1-1.9c0.4-0.4,0.9-0.6,1.4-0.6
				c0.4,0,1,0.2,1.3-0.4c0.1-0.2,0.3-0.3,0.6-0.2c0.2,0.1,0.3,0.2,0.4,0c0.2-0.3,0-0.6-0.1-0.9c-0.1-0.2-0.1-0.2-0.4-0.1
				c-0.9,0.2-0.9,0.1-1.2-0.7c0,0-0.1,0-0.1,0c-0.1,0.3-0.1,0.5,0.1,0.8c0.1,0.1,0.1,0.2,0,0.3c-0.1,0.1-0.3,0.1-0.4,0
				c-0.1-0.1-0.1-0.2-0.3-0.2c-0.1,0.1,0,0.4-0.3,0.3c-0.3-0.1-0.4,0.1-0.6,0.3c-0.1,0.1-0.1,0.3-0.4,0.3c-0.6,0.1-0.8,0.7-1.4,0.7
				c0,0-0.1,0.1-0.1,0.1c-0.1,0.7-0.5,1.1-1.4,1c0.4,0.2,0.7,0.2,0.9,0.4c-0.3,0.1-1.1,0-0.4,0.6c0.1,0.1,0.1,0.2,0.1,0.3
				C67.7,54.3,67.9,54.5,68.4,54.5z M71.6,61.8c-0.3,0.1-0.6,0.2-0.9,0.2c-0.3,0-0.5,0.1-0.8,0.4c-0.5,0.6-0.8,1.4-1.4,2
				c-0.2,0.2,0,0.3,0.2,0.3c0.2,0,0.4-0.1,0.6-0.1C70.5,63.9,71.2,62.9,71.6,61.8z M71.3,45.5c-0.1-0.9-0.8-2.3-1.4-2.8
				c-0.1-0.1-0.2-0.2-0.4-0.1c-0.2,0.1,0,0.3,0.1,0.4c0.4,0.6,0.7,1.2,1,1.9C70.7,45,70.9,45.3,71.3,45.5z M74.1,65.5
				c0.8-0.7,0.9-1.5,0.8-2.4c0-0.1,0-0.3-0.2-0.3c-0.2,0-0.3,0.1-0.3,0.3C74.3,63.8,74.2,64.7,74.1,65.5z M64.3,51
				c-0.6-0.4-1.2-0.8-1.8-1.3c-0.2-0.1-0.6-0.1-0.6,0.1c-0.1,0.3,0.2,0.4,0.4,0.5c0.1,0,0.2,0,0.2,0c0.4-0.2,0.6,0.1,0.7,0.3
				C63.4,51.1,63.9,51.1,64.3,51z M61.5,48.8c0,0,0-0.1,0-0.1c-0.1-0.2-0.2-0.3-0.3-0.5c-0.4-0.4-0.8-0.6-1.3-0.7
				c-0.3,0-0.4,0.1-0.2,0.4C60.1,48.4,60.8,48.6,61.5,48.8z M73.6,47.1c0.1,0,0.1-0.1,0.2-0.1c0.4-0.7,0.1-1.4,0.1-2.1
				c0-0.1,0-0.4-0.3-0.3c-0.2,0.1-0.2,0.3-0.2,0.4C73.5,45.7,73.5,46.4,73.6,47.1z M66.3,45.6c0,0.1,1.5,1.2,1.5,1.1
				c0.1-0.1,0.4-0.1,0.2-0.3c-0.4-0.5-0.8-0.9-1.5-1C66.4,45.4,66.3,45.5,66.3,45.6z M72.7,44.6c0,0.8-0.1,1.7,0.2,2.5
				C73.1,46.3,73,45.4,72.7,44.6z M65.3,50.3c0-0.1,0.1-0.1,0.1-0.2c-0.1,0-0.2-0.1-0.3-0.1c-0.6-0.3-1.2-0.6-1.9-1
				C63.2,49,63,49,63,49.2c-0.1,0.2-0.1,0.3,0.1,0.4C63.9,49.8,64.5,50.2,65.3,50.3z M65.4,53c-0.2,0.3-0.7,0.1-0.7,0.4
				c0,0.2,0.2,0.5,0.5,0.5c0.4,0,0.5-0.2,0.6-0.5C65.7,53.2,65.6,53.1,65.4,53z M65.8,49.8c0-0.1,0-0.1,0.1-0.2
				c-0.5-0.3-1-0.6-1.5-0.9c-0.1-0.1-0.3-0.1-0.4,0c-0.1,0.1,0,0.1,0,0.2C64.6,49.3,65.2,49.7,65.8,49.8z M66.3,49
				c0,0,0.1-0.1,0.1-0.1c-0.5-0.4-0.9-1-1.7-0.9C65.2,48.3,65.7,48.7,66.3,49z M69.5,48.5c-0.1-0.3-0.2-0.6-0.4-0.8
				c-0.1-0.1-0.2-0.3-0.3,0c-0.1,0.1-0.3,0.2,0,0.4C69,48.2,69.2,48.3,69.5,48.5z M67,60.1c0.4,0.1,0.7,0,1.1-0.2
				c0.1,0,0.2-0.1,0.1-0.2c0-0.1-0.1-0.1-0.2-0.1C67.7,59.7,67.3,59.6,67,60.1z M78.8,59.9c-0.1-0.3-0.1-0.8-0.7-0.8
				C78.1,59.5,78.5,59.6,78.8,59.9z M72.2,46.7c0.2-0.4,0.1-0.6,0-0.9c0-0.1-0.1-0.3-0.2-0.3c-0.2,0-0.1,0.2-0.1,0.4
				C71.9,46.2,71.9,46.4,72.2,46.7z M74.4,61c0,0.3-0.1,0.7,0.1,0.9c0,0,0.1,0,0.1,0c0.1-0.3,0-0.6-0.1-0.9C74.5,61,74.5,61,74.4,61
				z M66.1,60c0.4,0.1,0.5-0.1,0.6-0.3c0-0.1,0-0.2-0.1-0.2c-0.3,0.1-0.6,0.1-0.7,0.3C65.8,60,66.1,60,66.1,60z M75.6,52.9
				c0,0.1,0,0.1,0,0.2c0.3,0,0.5,0.1,0.8,0.1c0.1,0,0.2,0,0.2-0.1c0-0.1-0.1-0.2-0.2-0.2C76.1,52.9,75.9,52.9,75.6,52.9z M64.6,52.5
				c-0.1-0.1-0.2-0.2-0.4-0.2c-0.1,0-0.3,0-0.3,0.2c0,0.2,0.1,0.2,0.3,0.2C64.4,52.7,64.5,52.7,64.6,52.5z M78.6,58.6
				c0.1,0.2,0.1,0.5,0.5,0.5c0,0,0.1-0.1,0.1-0.1C79.1,58.7,78.9,58.6,78.6,58.6z M64.3,57.5c-0.9,0-0.9,0-1.1,0.4
				C63.5,57.8,63.9,57.8,64.3,57.5z M65,50.8c-0.3-0.1-0.5-0.4-1-0.4C64.4,50.6,64.6,50.8,65,50.8z M79.1,53.2c0,0.1,0,0.2,0.2,0.2
				c0.1,0,0.1-0.1,0.1-0.2c0-0.1,0-0.2-0.2-0.3C79.2,53,79.2,53.1,79.1,53.2z"/>
			<circle fill="#FFFFFF" cx="70.4" cy="53.5" r="9.2"/>
			<path fill="#FFFFFF" stroke="#FFFFFF" stroke-width="0.3461" stroke-miterlimit="10" d="M64.5,59.6c0,0-1.7,1.8-1.4,3.5"/>
			<path fill="none" stroke="#FFFFFF" stroke-width="0.3461" stroke-miterlimit="10" d="M67.8,59.3c0,0-4.1,4.2-4.4,5.5"/>
			<path fill="#FFFFFF" d="M62.4,63.1c-0.2-0.5,0.3-1,0.8-0.8c0.1,0.1,0.2,0.2,0.3,0.3c0.2,0.5-0.3,1-0.8,0.8
				C62.5,63.3,62.4,63.2,62.4,63.1z"/>
			<path fill="#FFFFFF" d="M63,65.4c-0.4,0.1-0.8-0.4-0.7-0.6c0.2-0.2,0.3-0.7,0.5-0.5C63,64.6,63.6,65.3,63,65.4z"/>
		</g>
	</g>
</g>
<g id="Layer_3">
</g>
<g id="artboardexport-gray">
</g>
</svg>
